<svg xmlns="http://www.w3.org/2000/svg" width="767.253" height="200" viewBox="0 0 203.002 52.917"><path d="M52.916 25.372H39.402c0-6.629-4.129-11.86-11.86-11.86V0c15.169 0 25.374 11.115 25.374 25.372zM41.03 23.72h10.218c-.423-11.974-10.039-21.627-22.05-22.05v10.217A12.706 12.706 0 0141.03 23.719zm-16.486 25.27c-11.369 0-20.618-9.249-20.618-20.617 0-10.209 7.49-18.87 17.518-20.386v5.749c-6.816 1.447-11.86 7.504-11.86 14.637 0 8.248 6.71 14.96 14.96 14.96 7.146 0 13.195-5.057 14.637-11.86h5.749C43.415 41.5 34.753 48.99 24.544 48.99zm0 3.928C10.978 52.917 0 41.939 0 28.372c0-12.64 9.742-24.548 25.372-24.548V17.34c-7.787 0-11.86 5.568-11.86 11.033.008 6.09 4.943 11.025 11.033 11.032 5.414 0 11.033-4.006 11.033-11.86h13.515c0 15.537-11.832 25.373-24.548 25.373zm-.827-47.423c-12.255.432-22.064 10.49-22.064 22.878-.008 12.635 10.23 22.885 22.867 22.891h.024c12.367 0 22.445-9.787 22.878-22.065H37.206c-.458 6.992-6.497 12.289-13.489 11.83-6.991-.457-12.288-6.496-11.83-13.488a12.687 12.687 0 0111.83-11.83zm133.046 8.698c-1.251-.288-2.215-.355-2.215-1.235 0-.608.575-1.014 1.64-1.014 1.387 0 1.725.693 1.843 1.37h1.725c-.118-1.505-1.234-2.773-3.585-2.773-2.164 0-3.415 1.132-3.415 2.553 0 1.961 1.86 2.232 3.23 2.553 1.267.304 2.299.389 2.299 1.471 0 .541-.524 1.15-1.759 1.15-1.826 0-2.232-.795-2.316-1.725h-1.725c.085 1.826 1.285 3.128 4.075 3.128 2.097 0 3.517-1.031 3.517-2.688 0-2.063-1.724-2.418-3.314-2.79zm-8.256 0c-1.251-.288-2.215-.355-2.215-1.235 0-.608.575-1.014 1.64-1.014 1.387 0 1.725.693 1.843 1.37h1.725c-.119-1.505-1.235-2.773-3.585-2.773-2.164 0-3.415 1.132-3.415 2.553 0 1.961 1.86 2.232 3.23 2.553 1.267.304 2.299.389 2.299 1.471 0 .541-.524 1.15-1.759 1.15-1.826 0-2.232-.795-2.316-1.725h-1.725c.085 1.826 1.285 3.128 4.075 3.128 2.097 0 3.517-1.031 3.517-2.688 0-2.063-1.725-2.418-3.314-2.79zm-7.363-1.15c0 .829-.811.998-2.147 1.251-2.164.423-3.568 1.015-3.568 2.909 0 1.454 1.082 2.468 2.84 2.468 1.337 0 2.317-.524 2.858-1.285h.034c.17.846.609 1.184 1.556 1.184a2.67 2.67 0 001.031-.186v-.846c-.693.068-.828-.253-.828-.862v-4.109c0-2.3-1.42-3.026-3.331-3.026-2.604 0-3.67 1.302-3.754 2.959h1.725c.084-1.116.608-1.556 2.029-1.556 1.183 0 1.555.473 1.555 1.099zm-2.485 5.225c-.964 0-1.437-.44-1.437-1.235 0-.879.642-1.302 2.113-1.623.829-.169 1.522-.372 1.81-.575v1.302c0 1.404-1.015 2.13-2.486 2.13zm-6.272-10.94v12.09h1.792V7.327zm-3.35 4.16h2.013c-.288-2.47-2.148-4.414-5.208-4.414-3.483 0-5.681 2.655-5.681 6.29 0 3.653 2.198 6.307 5.68 6.307 3.078 0 4.938-1.944 5.209-4.667h-2.012c-.136 1.471-.998 2.943-3.247 2.943-2.604 0-3.635-2.182-3.635-4.583 0-2.384 1.031-4.565 3.635-4.565 2.232 0 3.027 1.471 3.247 2.688zm-12.555 7.93l-1.894-2.3c.677-1.082 1.066-2.367 1.218-3.517h-1.674a8.022 8.022 0 01-.66 2.164l-2.215-2.671c1.59-.913 2.503-1.759 2.503-3.128 0-1.42-1.15-2.909-3.094-2.892-2.08.017-3.095 1.471-3.095 2.892 0 1.133.575 1.944 1.42 2.976-1.267.744-2.536 1.707-2.536 3.5 0 1.843 1.32 3.23 3.788 3.23 1.336 0 2.418-.491 3.246-1.235l.812.98zm-5.816-10.67c.896 0 1.37.609 1.37 1.336 0 .88-.61 1.42-1.607 2.029-.643-.744-1.133-1.353-1.133-2.029 0-.727.49-1.336 1.37-1.336zm-.305 9.25c-1.37 0-2.08-.812-2.08-1.725 0-.914.508-1.674 1.522-2.35l2.655 3.246c-.558.507-1.251.828-2.097.828zm-12.77-5.784c-1.691-.422-2.824-.659-2.824-1.978 0-.896.862-1.437 2.3-1.437 1.674 0 2.553.744 2.739 2.147h2.012c-.17-2.485-2.097-3.872-4.751-3.872-2.638 0-4.295 1.2-4.295 3.348 0 2.3 2.046 3.027 3.94 3.5 2.384.592 3.415.863 3.415 2.3 0 .93-.693 1.725-2.485 1.725-2.165 0-3.213-1.015-3.315-2.554h-2.012c.119 2.74 2.368 4.278 5.327 4.278 3.043 0 4.497-1.606 4.497-3.534 0-2.705-1.961-3.263-4.548-3.923zm-8.546 4.346l.981 2.858h2.046l-4.43-12.09h-2.114l-4.447 12.09h2.046l.981-2.858zm-4.379-1.674l1.91-5.715h.035l1.893 5.715zm-12.1 4.532h2.013V14.58h3.128c2.316 0 3.99-1.1 3.99-3.636s-1.674-3.618-3.99-3.618h-5.14zM74.58 9.035h3.043c1.353 0 2.063.591 2.063 1.91 0 1.336-.71 1.911-2.063 1.911H74.58zm-3.93 1.335c0-1.944-1.436-3.043-3.922-3.043h-5.19v12.09h5.478c2.502 0 4.108-1.201 4.108-3.534 0-1.81-1.082-2.74-2.35-2.96v-.033c.998-.338 1.877-1.032 1.877-2.52zm-7.1 1.962V9.035h3.229c1.2 0 1.86.591 1.86 1.657 0 1.065-.541 1.64-1.979 1.64zm0 1.505h3.533c1.268 0 2.03.693 2.03 1.927 0 1.133-.525 1.945-2.25 1.945h-3.314zm135.196 19.542c-2.156 0-3.324 1.013-4.467 2.337h-.051c-.52-1.376-1.74-2.337-3.48-2.337-2 0-3.454 1.116-4.155 2.337h-.051v-1.922h-4.155V47.09h4.155v-7.686c0-1.844.856-2.649 2.155-2.649 1.48 0 1.895.676 1.895 2.675v7.66h4.155v-7.686c0-1.844.83-2.649 2.155-2.649 1.48 0 1.896.676 1.896 2.675v7.66h4.206v-8.984c0-3.038-1.584-4.726-4.258-4.726zm-24.501 11.01c-1.48 0-2.856-.987-2.856-2.857h9.555c0-4.83-2.31-8.153-6.855-8.153-4.232 0-6.855 3.012-6.855 7.063 0 4.154 2.675 7.063 7.089 7.063 3.61 0 5.687-1.766 6.414-4.44h-4.129c-.26.648-.935 1.324-2.363 1.324zm-.156-8.154c1.584 0 2.7.935 2.7 2.779h-5.4c0-1.844 1.116-2.779 2.7-2.779zm-7.652.675v-3.116h-2.311v-3.713h-4.155v3.713h-1.843v3.116h1.843v5.817c0 2.986.857 4.596 3.895 4.596 1.169 0 1.818-.13 2.57-.286v-3.116c-1.765 0-2.31 0-2.31-1.506V36.91zm-13.77 1.792c-2.051-.441-2.882-.467-2.882-1.402 0-.65.597-1.065 1.766-1.065 1.35 0 1.921.571 2.051 1.636h3.895c-.13-2.337-1.792-4.492-6.05-4.492-3.74 0-5.817 1.843-5.817 4.258 0 2.779 2.493 3.61 4.752 4.103 2.104.467 3.35.623 3.35 1.766 0 .753-.65 1.142-1.818 1.142-1.636 0-2.518-.649-2.648-1.973h-3.895c.13 2.7 1.947 4.83 6.7 4.83 3.686 0 5.816-1.532 5.816-4.337 0-3.012-2.597-3.895-5.22-4.466zm-7.282-4.908h-4.154l-2.52 8.725h-.05l-3.013-8.725h-4.155l4.337 11.374c.415 1.168.493 1.999.104 2.596-.442.675-1.377.805-2.52.546h-.051v3.116c.857.181 1.61.26 2.311.26 2.804 0 4.05-.936 5.193-4.337zm-21.107 1.766c-2.337-.65-3.505-1.013-3.505-2.155 0-1.039 1.09-1.48 2.493-1.48 1.791 0 2.986.83 3.193 2.233h4.674c-.13-3.765-3.531-6.05-7.867-6.05-4 0-7.167 1.584-7.167 5.634 0 3.428 2.804 4.804 5.998 5.739 2.623.779 4.622 1.116 4.622 2.597 0 .934-.935 1.61-2.674 1.61-2.078 0-3.792-.728-3.792-2.701h-4.674c0 4.129 3.636 6.518 8.466 6.518 4.648 0 7.348-2.311 7.348-5.869 0-3.973-3.61-5.115-7.115-6.076zM95.11 47.09h4.674v-6.726h4.336c3.87 0 6.284-2.026 6.284-5.92 0-3.896-2.415-5.92-6.284-5.92h-9.01zm4.674-14.75h3.35c1.61 0 2.596.545 2.596 2.103 0 1.558-.986 2.104-2.596 2.104h-3.35zm-22.12 14.75h4.674v-6.467h2.908c3.973 0 2.285 5.687 3.194 6.466h4.856v-.26c-1.065-.311.623-7.504-4.025-8.309v-.052c2.31-.519 3.765-2.077 3.765-4.544 0-3.505-2.493-5.4-6.622-5.4h-8.75zm4.674-14.75h3.168c1.87 0 2.856.675 2.856 2.233s-.987 2.233-2.856 2.233h-3.168zm-16.33 3.298V32.34h9.4v-3.817H61.332V47.09h14.23v-3.817h-9.556v-3.817h8.102v-3.817z" fill="#cc9800"/></svg>